<?xml version="1.0" encoding="UTF-8" standalone="no"?>
<!-- Created with Inkscape (http://www.inkscape.org/) -->

<svg
   xmlns:dc="http://purl.org/dc/elements/1.1/"
   xmlns:cc="http://creativecommons.org/ns#"
   xmlns:rdf="http://www.w3.org/1999/02/22-rdf-syntax-ns#"
   xmlns:svg="http://www.w3.org/2000/svg"
   xmlns="http://www.w3.org/2000/svg"
   xmlns:sodipodi="http://sodipodi.sourceforge.net/DTD/sodipodi-0.dtd"
   xmlns:inkscape="http://www.inkscape.org/namespaces/inkscape"
   width="210mm"
   height="297mm"
   viewBox="0 0 744.09448819 1052.3622047"
   id="svg4178"
   version="1.1"
   inkscape:version="0.91 r13725"
   sodipodi:docname="pubkey_signme.svg">
  <defs
     id="defs4180" />
  <sodipodi:namedview
     id="base"
     pagecolor="#ffffff"
     bordercolor="#666666"
     borderopacity="1.0"
     inkscape:pageopacity="0.0"
     inkscape:pageshadow="2"
     inkscape:zoom="0.49497475"
     inkscape:cx="277.47292"
     inkscape:cy="520"
     inkscape:document-units="px"
     inkscape:current-layer="layer1"
     showgrid="false"
     showguides="true"
     inkscape:guide-bbox="true"
     inkscape:window-width="1680"
     inkscape:window-height="1005"
     inkscape:window-x="0"
     inkscape:window-y="45"
     inkscape:window-maximized="0" />
  <metadata
     id="metadata4183">
    <rdf:RDF>
      <cc:Work
         rdf:about="">
        <dc:format>image/svg+xml</dc:format>
        <dc:type
           rdf:resource="http://purl.org/dc/dcmitype/StillImage" />
        <dc:title></dc:title>
      </cc:Work>
    </rdf:RDF>
  </metadata>
  <g
     inkscape:label="Layer 1"
     inkscape:groupmode="layer"
     id="layer1">
    <g
       id="g5404"
       transform="translate(4.351717,0)">
      <g
         id="g5343"
         transform="translate(-6.0946418,-692.56916)">
        <path
           inkscape:connector-curvature="0"
           style="opacity:1;fill:#727272;fill-opacity:1;stroke:none;stroke-width:5;stroke-linecap:round;stroke-linejoin:round;stroke-miterlimit:4;stroke-dasharray:none;stroke-dashoffset:0;stroke-opacity:1"
           d="m 242.69075,780.4636 c -15.51511,0 -27.64109,8.03047 -35.18187,17.45646 -7.54079,9.42598 -11.36302,19.8538 -11.36302,29.08844 l 0,31.19459 -79.94714,0 c -5.20102,0 -9.38882,4.18779 -9.38882,9.38882 l 0,84.49268 c 0,5.20102 4.1878,9.38882 9.38882,9.38882 l 107.82265,0 c 5.20102,0 9.38713,-4.1878 9.38713,-9.38882 l 0,-84.49268 c 0,-5.20103 -4.18611,-9.38882 -9.38713,-9.38882 l -10.15009,0 0,-31.19459 c 0,-3.32634 2.45875,-11.73949 7.47893,-18.01471 5.02017,-6.27522 11.73374,-10.80645 21.34054,-10.80645 9.60682,0 16.32207,4.53123 21.34225,10.80645 5.02018,6.27522 7.47891,14.68837 7.47891,18.01471 l 0,27.50334 17.72544,0 0,-27.50334 c 0,-9.23464 -3.82224,-19.66246 -11.36303,-29.08844 -7.54077,-9.42599 -19.66844,-17.45646 -35.18357,-17.45646 z M 170.1092,882.7832 a 15.084387,15.084387 0 0 1 15.08472,15.08472 15.084387,15.084387 0 0 1 -6.92236,12.68591 l 4.47619,26.33777 -25.2754,0 4.59798,-26.28025 a 15.084387,15.084387 0 0 1 -7.04584,-12.74343 15.084387,15.084387 0 0 1 15.08471,-15.08472 z"
           id="rect4441" />
        <text
           xml:space="preserve"
           style="font-style:normal;font-weight:normal;font-size:16.25px;line-height:0%;font-family:Sans;letter-spacing:0px;word-spacing:0px;fill:#000000;fill-opacity:1;stroke:none;stroke-width:1px;stroke-linecap:butt;stroke-linejoin:miter;stroke-opacity:1"
           x="185.51736"
           y="756.39203"
           id="text4754"
           sodipodi:linespacing="0%"><tspan
             sodipodi:role="line"
             id="tspan4756"
             x="185.51736"
             y="756.39203"
             style="font-style:normal;font-variant:normal;font-weight:bold;font-stretch:normal;font-size:50px;font-family:Axel;-inkscape-font-specification:'Axel Bold';text-align:center;text-anchor:middle">LENAME</tspan></text>
        <text
           sodipodi:linespacing="0%"
           id="text5339"
           y="1022.7321"
           x="185.51736"
           style="font-style:normal;font-weight:normal;font-size:16.25px;line-height:0%;font-family:Sans;letter-spacing:0px;word-spacing:0px;fill:#000000;fill-opacity:1;stroke:none;stroke-width:1px;stroke-linecap:butt;stroke-linejoin:miter;stroke-opacity:1"
           xml:space="preserve"><tspan
             style="font-style:normal;font-variant:normal;font-weight:bold;font-stretch:normal;font-size:35px;font-family:'Axel SC';-inkscape-font-specification:'Axel SC Bold';text-align:center;text-anchor:middle"
             y="1022.7321"
             x="185.51736"
             id="tspan5341"
             sodipodi:role="line">0xLEKEYID</tspan></text>
      </g>
      <g
         transform="translate(-6.0946418,-341.03609)"
         id="g5380">
        <path
           id="path5382"
           d="m 242.69075,780.4636 c -15.51511,0 -27.64109,8.03047 -35.18187,17.45646 -7.54079,9.42598 -11.36302,19.8538 -11.36302,29.08844 l 0,31.19459 -79.94714,0 c -5.20102,0 -9.38882,4.18779 -9.38882,9.38882 l 0,84.49268 c 0,5.20102 4.1878,9.38882 9.38882,9.38882 l 107.82265,0 c 5.20102,0 9.38713,-4.1878 9.38713,-9.38882 l 0,-84.49268 c 0,-5.20103 -4.18611,-9.38882 -9.38713,-9.38882 l -10.15009,0 0,-31.19459 c 0,-3.32634 2.45875,-11.73949 7.47893,-18.01471 5.02017,-6.27522 11.73374,-10.80645 21.34054,-10.80645 9.60682,0 16.32207,4.53123 21.34225,10.80645 5.02018,6.27522 7.47891,14.68837 7.47891,18.01471 l 0,27.50334 17.72544,0 0,-27.50334 c 0,-9.23464 -3.82224,-19.66246 -11.36303,-29.08844 -7.54077,-9.42599 -19.66844,-17.45646 -35.18357,-17.45646 z M 170.1092,882.7832 a 15.084387,15.084387 0 0 1 15.08472,15.08472 15.084387,15.084387 0 0 1 -6.92236,12.68591 l 4.47619,26.33777 -25.2754,0 4.59798,-26.28025 a 15.084387,15.084387 0 0 1 -7.04584,-12.74343 15.084387,15.084387 0 0 1 15.08471,-15.08472 z"
           style="opacity:1;fill:#727272;fill-opacity:1;stroke:none;stroke-width:5;stroke-linecap:round;stroke-linejoin:round;stroke-miterlimit:4;stroke-dasharray:none;stroke-dashoffset:0;stroke-opacity:1"
           inkscape:connector-curvature="0" />
        <text
           sodipodi:linespacing="0%"
           id="text5384"
           y="756.39203"
           x="185.51736"
           style="font-style:normal;font-weight:normal;font-size:16.25px;line-height:0%;font-family:Sans;letter-spacing:0px;word-spacing:0px;fill:#000000;fill-opacity:1;stroke:none;stroke-width:1px;stroke-linecap:butt;stroke-linejoin:miter;stroke-opacity:1"
           xml:space="preserve"><tspan
             style="font-style:normal;font-variant:normal;font-weight:bold;font-stretch:normal;font-size:50px;font-family:Axel;-inkscape-font-specification:'Axel Bold';text-align:center;text-anchor:middle"
             y="756.39203"
             x="185.51736"
             id="tspan5386"
             sodipodi:role="line">LENAME</tspan></text>
        <text
           xml:space="preserve"
           style="font-style:normal;font-weight:normal;font-size:16.25px;line-height:0%;font-family:Sans;letter-spacing:0px;word-spacing:0px;fill:#000000;fill-opacity:1;stroke:none;stroke-width:1px;stroke-linecap:butt;stroke-linejoin:miter;stroke-opacity:1"
           x="185.51736"
           y="1022.7321"
           id="text5388"
           sodipodi:linespacing="0%"><tspan
             sodipodi:role="line"
             id="tspan5390"
             x="185.51736"
             y="1022.7321"
             style="font-style:normal;font-variant:normal;font-weight:bold;font-stretch:normal;font-size:35px;font-family:'Axel SC';-inkscape-font-specification:'Axel SC Bold';text-align:center;text-anchor:middle">0xLEKEYID</tspan></text>
      </g>
      <g
         id="g5392"
         transform="translate(-6.0946418,10.497011)">
        <path
           inkscape:connector-curvature="0"
           style="opacity:1;fill:#727272;fill-opacity:1;stroke:none;stroke-width:5;stroke-linecap:round;stroke-linejoin:round;stroke-miterlimit:4;stroke-dasharray:none;stroke-dashoffset:0;stroke-opacity:1"
           d="m 242.69075,780.4636 c -15.51511,0 -27.64109,8.03047 -35.18187,17.45646 -7.54079,9.42598 -11.36302,19.8538 -11.36302,29.08844 l 0,31.19459 -79.94714,0 c -5.20102,0 -9.38882,4.18779 -9.38882,9.38882 l 0,84.49268 c 0,5.20102 4.1878,9.38882 9.38882,9.38882 l 107.82265,0 c 5.20102,0 9.38713,-4.1878 9.38713,-9.38882 l 0,-84.49268 c 0,-5.20103 -4.18611,-9.38882 -9.38713,-9.38882 l -10.15009,0 0,-31.19459 c 0,-3.32634 2.45875,-11.73949 7.47893,-18.01471 5.02017,-6.27522 11.73374,-10.80645 21.34054,-10.80645 9.60682,0 16.32207,4.53123 21.34225,10.80645 5.02018,6.27522 7.47891,14.68837 7.47891,18.01471 l 0,27.50334 17.72544,0 0,-27.50334 c 0,-9.23464 -3.82224,-19.66246 -11.36303,-29.08844 -7.54077,-9.42599 -19.66844,-17.45646 -35.18357,-17.45646 z M 170.1092,882.7832 a 15.084387,15.084387 0 0 1 15.08472,15.08472 15.084387,15.084387 0 0 1 -6.92236,12.68591 l 4.47619,26.33777 -25.2754,0 4.59798,-26.28025 a 15.084387,15.084387 0 0 1 -7.04584,-12.74343 15.084387,15.084387 0 0 1 15.08471,-15.08472 z"
           id="path5394" />
        <text
           xml:space="preserve"
           style="font-style:normal;font-weight:normal;font-size:16.25px;line-height:0%;font-family:Sans;letter-spacing:0px;word-spacing:0px;fill:#000000;fill-opacity:1;stroke:none;stroke-width:1px;stroke-linecap:butt;stroke-linejoin:miter;stroke-opacity:1"
           x="185.51736"
           y="756.39203"
           id="text5396"
           sodipodi:linespacing="0%"><tspan
             sodipodi:role="line"
             id="tspan5398"
             x="185.51736"
             y="756.39203"
             style="font-style:normal;font-variant:normal;font-weight:bold;font-stretch:normal;font-size:50px;font-family:Axel;-inkscape-font-specification:'Axel Bold';text-align:center;text-anchor:middle">LENAME</tspan></text>
        <text
           sodipodi:linespacing="0%"
           id="text5400"
           y="1022.7321"
           x="185.51736"
           style="font-style:normal;font-weight:normal;font-size:16.25px;line-height:0%;font-family:Sans;letter-spacing:0px;word-spacing:0px;fill:#000000;fill-opacity:1;stroke:none;stroke-width:1px;stroke-linecap:butt;stroke-linejoin:miter;stroke-opacity:1"
           xml:space="preserve"><tspan
             style="font-style:normal;font-variant:normal;font-weight:bold;font-stretch:normal;font-size:35px;font-family:'Axel SC';-inkscape-font-specification:'Axel SC Bold';text-align:center;text-anchor:middle"
             y="1022.7321"
             x="185.51736"
             id="tspan5402"
             sodipodi:role="line">0xLEKEYID</tspan></text>
      </g>
    </g>
    <g
       transform="translate(361.78328,0)"
       id="g5424">
      <g
         transform="translate(-6.0946418,-692.56916)"
         id="g5426">
        <path
           id="path5428"
           d="m 242.69075,780.4636 c -15.51511,0 -27.64109,8.03047 -35.18187,17.45646 -7.54079,9.42598 -11.36302,19.8538 -11.36302,29.08844 l 0,31.19459 -79.94714,0 c -5.20102,0 -9.38882,4.18779 -9.38882,9.38882 l 0,84.49268 c 0,5.20102 4.1878,9.38882 9.38882,9.38882 l 107.82265,0 c 5.20102,0 9.38713,-4.1878 9.38713,-9.38882 l 0,-84.49268 c 0,-5.20103 -4.18611,-9.38882 -9.38713,-9.38882 l -10.15009,0 0,-31.19459 c 0,-3.32634 2.45875,-11.73949 7.47893,-18.01471 5.02017,-6.27522 11.73374,-10.80645 21.34054,-10.80645 9.60682,0 16.32207,4.53123 21.34225,10.80645 5.02018,6.27522 7.47891,14.68837 7.47891,18.01471 l 0,27.50334 17.72544,0 0,-27.50334 c 0,-9.23464 -3.82224,-19.66246 -11.36303,-29.08844 -7.54077,-9.42599 -19.66844,-17.45646 -35.18357,-17.45646 z M 170.1092,882.7832 a 15.084387,15.084387 0 0 1 15.08472,15.08472 15.084387,15.084387 0 0 1 -6.92236,12.68591 l 4.47619,26.33777 -25.2754,0 4.59798,-26.28025 a 15.084387,15.084387 0 0 1 -7.04584,-12.74343 15.084387,15.084387 0 0 1 15.08471,-15.08472 z"
           style="opacity:1;fill:#727272;fill-opacity:1;stroke:none;stroke-width:5;stroke-linecap:round;stroke-linejoin:round;stroke-miterlimit:4;stroke-dasharray:none;stroke-dashoffset:0;stroke-opacity:1"
           inkscape:connector-curvature="0" />
        <text
           sodipodi:linespacing="0%"
           id="text5430"
           y="756.39203"
           x="185.51736"
           style="font-style:normal;font-weight:normal;font-size:16.25px;line-height:0%;font-family:Sans;letter-spacing:0px;word-spacing:0px;fill:#000000;fill-opacity:1;stroke:none;stroke-width:1px;stroke-linecap:butt;stroke-linejoin:miter;stroke-opacity:1"
           xml:space="preserve"><tspan
             style="font-style:normal;font-variant:normal;font-weight:bold;font-stretch:normal;font-size:50px;font-family:Axel;-inkscape-font-specification:'Axel Bold';text-align:center;text-anchor:middle"
             y="756.39203"
             x="185.51736"
             id="tspan5432"
             sodipodi:role="line">LENAME</tspan></text>
        <text
           xml:space="preserve"
           style="font-style:normal;font-weight:normal;font-size:16.25px;line-height:0%;font-family:Sans;letter-spacing:0px;word-spacing:0px;fill:#000000;fill-opacity:1;stroke:none;stroke-width:1px;stroke-linecap:butt;stroke-linejoin:miter;stroke-opacity:1"
           x="185.51736"
           y="1022.7321"
           id="text5434"
           sodipodi:linespacing="0%"><tspan
             sodipodi:role="line"
             id="tspan5436"
             x="185.51736"
             y="1022.7321"
             style="font-style:normal;font-variant:normal;font-weight:bold;font-stretch:normal;font-size:35px;font-family:'Axel SC';-inkscape-font-specification:'Axel SC Bold';text-align:center;text-anchor:middle">0xLEKEYID</tspan></text>
      </g>
      <g
         id="g5438"
         transform="translate(-6.0946418,-341.03609)">
        <path
           inkscape:connector-curvature="0"
           style="opacity:1;fill:#727272;fill-opacity:1;stroke:none;stroke-width:5;stroke-linecap:round;stroke-linejoin:round;stroke-miterlimit:4;stroke-dasharray:none;stroke-dashoffset:0;stroke-opacity:1"
           d="m 242.69075,780.4636 c -15.51511,0 -27.64109,8.03047 -35.18187,17.45646 -7.54079,9.42598 -11.36302,19.8538 -11.36302,29.08844 l 0,31.19459 -79.94714,0 c -5.20102,0 -9.38882,4.18779 -9.38882,9.38882 l 0,84.49268 c 0,5.20102 4.1878,9.38882 9.38882,9.38882 l 107.82265,0 c 5.20102,0 9.38713,-4.1878 9.38713,-9.38882 l 0,-84.49268 c 0,-5.20103 -4.18611,-9.38882 -9.38713,-9.38882 l -10.15009,0 0,-31.19459 c 0,-3.32634 2.45875,-11.73949 7.47893,-18.01471 5.02017,-6.27522 11.73374,-10.80645 21.34054,-10.80645 9.60682,0 16.32207,4.53123 21.34225,10.80645 5.02018,6.27522 7.47891,14.68837 7.47891,18.01471 l 0,27.50334 17.72544,0 0,-27.50334 c 0,-9.23464 -3.82224,-19.66246 -11.36303,-29.08844 -7.54077,-9.42599 -19.66844,-17.45646 -35.18357,-17.45646 z M 170.1092,882.7832 a 15.084387,15.084387 0 0 1 15.08472,15.08472 15.084387,15.084387 0 0 1 -6.92236,12.68591 l 4.47619,26.33777 -25.2754,0 4.59798,-26.28025 a 15.084387,15.084387 0 0 1 -7.04584,-12.74343 15.084387,15.084387 0 0 1 15.08471,-15.08472 z"
           id="path5440" />
        <text
           xml:space="preserve"
           style="font-style:normal;font-weight:normal;font-size:16.25px;line-height:0%;font-family:Sans;letter-spacing:0px;word-spacing:0px;fill:#000000;fill-opacity:1;stroke:none;stroke-width:1px;stroke-linecap:butt;stroke-linejoin:miter;stroke-opacity:1"
           x="185.51736"
           y="756.39203"
           id="text5442"
           sodipodi:linespacing="0%"><tspan
             sodipodi:role="line"
             id="tspan5444"
             x="185.51736"
             y="756.39203"
             style="font-style:normal;font-variant:normal;font-weight:bold;font-stretch:normal;font-size:50px;font-family:Axel;-inkscape-font-specification:'Axel Bold';text-align:center;text-anchor:middle">LENAME</tspan></text>
        <text
           sodipodi:linespacing="0%"
           id="text5446"
           y="1022.7321"
           x="185.51736"
           style="font-style:normal;font-weight:normal;font-size:16.25px;line-height:0%;font-family:Sans;letter-spacing:0px;word-spacing:0px;fill:#000000;fill-opacity:1;stroke:none;stroke-width:1px;stroke-linecap:butt;stroke-linejoin:miter;stroke-opacity:1"
           xml:space="preserve"><tspan
             style="font-style:normal;font-variant:normal;font-weight:bold;font-stretch:normal;font-size:35px;font-family:'Axel SC';-inkscape-font-specification:'Axel SC Bold';text-align:center;text-anchor:middle"
             y="1022.7321"
             x="185.51736"
             id="tspan5448"
             sodipodi:role="line">0xLEKEYID</tspan></text>
      </g>
      <g
         transform="translate(-6.0946418,10.497011)"
         id="g5450">
        <path
           id="path5452"
           d="m 242.69075,780.4636 c -15.51511,0 -27.64109,8.03047 -35.18187,17.45646 -7.54079,9.42598 -11.36302,19.8538 -11.36302,29.08844 l 0,31.19459 -79.94714,0 c -5.20102,0 -9.38882,4.18779 -9.38882,9.38882 l 0,84.49268 c 0,5.20102 4.1878,9.38882 9.38882,9.38882 l 107.82265,0 c 5.20102,0 9.38713,-4.1878 9.38713,-9.38882 l 0,-84.49268 c 0,-5.20103 -4.18611,-9.38882 -9.38713,-9.38882 l -10.15009,0 0,-31.19459 c 0,-3.32634 2.45875,-11.73949 7.47893,-18.01471 5.02017,-6.27522 11.73374,-10.80645 21.34054,-10.80645 9.60682,0 16.32207,4.53123 21.34225,10.80645 5.02018,6.27522 7.47891,14.68837 7.47891,18.01471 l 0,27.50334 17.72544,0 0,-27.50334 c 0,-9.23464 -3.82224,-19.66246 -11.36303,-29.08844 -7.54077,-9.42599 -19.66844,-17.45646 -35.18357,-17.45646 z M 170.1092,882.7832 a 15.084387,15.084387 0 0 1 15.08472,15.08472 15.084387,15.084387 0 0 1 -6.92236,12.68591 l 4.47619,26.33777 -25.2754,0 4.59798,-26.28025 a 15.084387,15.084387 0 0 1 -7.04584,-12.74343 15.084387,15.084387 0 0 1 15.08471,-15.08472 z"
           style="opacity:1;fill:#727272;fill-opacity:1;stroke:none;stroke-width:5;stroke-linecap:round;stroke-linejoin:round;stroke-miterlimit:4;stroke-dasharray:none;stroke-dashoffset:0;stroke-opacity:1"
           inkscape:connector-curvature="0" />
        <text
           sodipodi:linespacing="0%"
           id="text5454"
           y="756.39203"
           x="185.51736"
           style="font-style:normal;font-weight:normal;font-size:16.25px;line-height:0%;font-family:Sans;letter-spacing:0px;word-spacing:0px;fill:#000000;fill-opacity:1;stroke:none;stroke-width:1px;stroke-linecap:butt;stroke-linejoin:miter;stroke-opacity:1"
           xml:space="preserve"><tspan
             style="font-style:normal;font-variant:normal;font-weight:bold;font-stretch:normal;font-size:50px;font-family:Axel;-inkscape-font-specification:'Axel Bold';text-align:center;text-anchor:middle"
             y="756.39203"
             x="185.51736"
             id="tspan5456"
             sodipodi:role="line">LENAME</tspan></text>
        <text
           xml:space="preserve"
           style="font-style:normal;font-weight:normal;font-size:16.25px;line-height:0%;font-family:Sans;letter-spacing:0px;word-spacing:0px;fill:#000000;fill-opacity:1;stroke:none;stroke-width:1px;stroke-linecap:butt;stroke-linejoin:miter;stroke-opacity:1"
           x="185.51736"
           y="1022.7321"
           id="text5458"
           sodipodi:linespacing="0%"><tspan
             sodipodi:role="line"
             id="tspan5460"
             x="185.51736"
             y="1022.7321"
             style="font-style:normal;font-variant:normal;font-weight:bold;font-stretch:normal;font-size:35px;font-family:'Axel SC';-inkscape-font-specification:'Axel SC Bold';text-align:center;text-anchor:middle">0xLEKEYID</tspan></text>
      </g>
    </g>
  </g>
</svg>
